<svg xmlns="http://www.w3.org/2000/svg" viewBox="0 0 250 250" width="250" height="250"><path d="M125 30v0 0l-93.1 33.2 14.2 123.1 78.9 43.7v0 0l78.9-43.7 14.2-123.1z" fill="#1abc9c"/><path d="M125 30v22.2 -0.1 101.3 0 76.6 0l78.9-43.7 14.2-123.1 -93.1-33.2z" fill="#00aa89"/><path d="M137.4 179.3c0 6.9-5.6 12.4-12.4 12.4 -6.9 0-12.4-5.6-12.4-12.4zM181.3 166.4v6.6h-112.5v-6.6l13.3-13.2v-36.4c0-20.3 14.1-37.3 33.1-41.8v-4.5c0-5.5 4.4-9.9 9.9-9.9 5.5 0 9.9 4.4 9.9 9.9v4.5c19 4.5 33.1 21.5 33.1 41.8v36.4zM150 116.8h-18.7v-18.7h-12.5v18.8h-18.7v12.6h18.8v18.8h12.5v-18.7h18.8z" fill="#fff"/></svg>